<svg id="cart" xmlns="http://www.w3.org/2000/svg" width="44" height="44" viewBox="0 0 44 44">
  <g id="Rectangle_4517" data-name="Rectangle 4517" fill="#fff" stroke="#707070" stroke-width="1" opacity="0">
    <rect width="44" height="44" stroke="none"/>
    <rect x="0.5" y="0.5" width="43" height="43" fill="none"/>
  </g>
  <g id="cart_icon" data-name="cart icon" transform="translate(4.185 7.154)">
    <path id="Path_184" data-name="Path 184" d="M161.4,232.617a6.6,6.6,0,1,1-6.4,6.6A6.508,6.508,0,0,1,161.4,232.617Zm-3.594,7.636h2.582v2.664a1.01,1.01,0,1,0,2.019,0v-2.664h2.582a1.04,1.04,0,0,0,0-2.078H162.41v-2.659a1.01,1.01,0,1,0-2.019,0v2.659h-2.582a1.04,1.04,0,0,0,0,2.078Zm11.763-1.039a8.4,8.4,0,0,0-5.381-7.9l5.412-9.208a1.417,1.417,0,0,1,1.213-.709,1.353,1.353,0,0,1,.728.213,1.442,1.442,0,0,1,.645.906,1.48,1.48,0,0,1-.165,1.1l-4.874,8.291H180.6l-4.9-8.291a1.49,1.49,0,0,1,.48-2,1.384,1.384,0,0,1,.733-.213,1.409,1.409,0,0,1,1.219.7l5.783,9.8h4.234a2.564,2.564,0,0,1,.434,5.073c-.547,2.068-2.107,7.982-2.675,10.215-.532,2.083-1.957,3.9-3.986,3.9H165.343c-1.879,0-3.232-1.572-3.847-3.464A8.3,8.3,0,0,0,169.572,239.214Zm8.881,7.854a1.264,1.264,0,0,0,.785.608,1.081,1.081,0,0,0,.32.043,1.278,1.278,0,0,0,1.234-.991l1.725-7.162a1.315,1.315,0,0,0-.919-1.6,1.079,1.079,0,0,0-.32-.043,1.28,1.28,0,0,0-1.239.986l-1.72,7.156A1.327,1.327,0,0,0,178.453,247.068Zm-6.723,0a1.282,1.282,0,0,0,.785.608,1.081,1.081,0,0,0,.32.043,1.283,1.283,0,0,0,1.234-.991l1.719-7.162a1.316,1.316,0,0,0-.914-1.6,1.079,1.079,0,0,0-.32-.043,1.28,1.28,0,0,0-1.239.986l-1.72,7.156A1.35,1.35,0,0,0,171.73,247.068Z" transform="translate(-155 -221.4)" fill="#fff"/>
  </g>
</svg>
