<svg xmlns="http://www.w3.org/2000/svg" width="92" height="56" viewBox="0 0 92 56">
  <g id="american" transform="translate(0.331 -0.193)">
    <rect id="bg" width="92" height="56" rx="8" transform="translate(-0.331 0.193)" fill="rgba(36,110,169,0.2)"/>
    <g id="american_express" transform="translate(5.085 14.903)">
      <g id="Group_11022" data-name="Group 11022" transform="translate(0)">
        <g id="Group_11015" data-name="Group 11015">
          <g id="Group_11011" data-name="Group 11011" transform="translate(6.555 3.156)">
            <path id="Path_22033" data-name="Path 22033" d="M5.9,27.1H8.57L7.235,23.7Z" transform="translate(-5.9 -23.7)" fill="#246ea9"/>
          </g>
          <g id="Group_11012" data-name="Group 11012" transform="translate(36.293 3.52)">
            <path id="Path_22034" data-name="Path 22034" d="M33.8,24.121A2.366,2.366,0,0,0,32.828,24H30.4v1.942h2.428a2.366,2.366,0,0,0,.971-.121.945.945,0,0,0,.364-.85A.675.675,0,0,0,33.8,24.121Z" transform="translate(-30.4 -24)" fill="#246ea9"/>
          </g>
          <g id="Group_11013" data-name="Group 11013">
            <path id="Path_22035" data-name="Path 22035" d="M66.168,21.1v1.457L65.44,21.1h-5.7v1.457L59.007,21.1H51.238a7.39,7.39,0,0,0-3.4.728V21.1H42.377v.728a3.5,3.5,0,0,0-2.306-.728H20.528l-1.335,3.035L17.858,21.1H11.667v1.457L10.939,21.1H5.719L3.292,26.8.5,33.117H6.691l.728-1.942h1.7l.728,1.942h7.04V31.66l.607,1.457h3.52l.607-1.457v1.457H38.493V29.961h.243c.243,0,.243,0,.243.364V33h8.74v-.728A7.271,7.271,0,0,0,51,33h3.641l.728-1.942h1.7L57.793,33h7.04V31.175L65.925,33H71.63V21.1ZM25.141,31.3H23.077V24.62L20.164,31.3H18.343L15.43,24.62V31.3H11.3l-.85-1.821H6.326L5.6,31.418H3.292L6.933,22.8H9.968l3.4,8.133V22.8h3.277l2.67,5.826L21.742,22.8h3.4Zm8.254-6.676H28.661V26.2h4.613v1.7H28.661v1.7h4.734v1.821H26.6V22.8h6.8Zm9.1,3.52a3.037,3.037,0,0,1,.364,1.578v1.7H40.8V30.325a2.891,2.891,0,0,0-.364-1.7c-.364-.364-.728-.364-1.457-.364H36.793v3.156H34.73V22.8h4.613a4.653,4.653,0,0,1,2.428.364,2.068,2.068,0,0,1,.971,1.942,2.417,2.417,0,0,1-1.457,2.306A2.308,2.308,0,0,1,42.5,28.14ZM46.14,31.3H44.076V22.678H46.14Zm23.912,0H67.139l-3.884-6.433V31.3H59.128L58.4,29.475H54.151l-.728,1.942H51.117a4.238,4.238,0,0,1-2.913-.971,4.266,4.266,0,0,1-1.092-3.277,4.975,4.975,0,0,1,1.092-3.4,3.826,3.826,0,0,1,3.035-.971H53.18V24.62H51.238a2.238,2.238,0,0,0-1.578.486,2.85,2.85,0,0,0-.607,1.942,2.641,2.641,0,0,0,.607,2.064,1.935,1.935,0,0,0,1.457.486h.85l2.792-6.676h3.035l3.4,8.133V22.921h3.035l3.52,5.948V22.921H69.81V31.3Z" transform="translate(-0.5 -21.1)" fill="#246ea9"/>
          </g>
          <g id="Group_11014" data-name="Group 11014" transform="translate(54.38 3.156)">
            <path id="Path_22036" data-name="Path 22036" d="M45.3,27.1h2.792l-1.335-3.4Z" transform="translate(-45.3 -23.7)" fill="#246ea9"/>
          </g>
        </g>
        <g id="Group_11021" data-name="Group 11021" transform="translate(16.872 14.566)">
          <g id="Group_11016" data-name="Group 11016" transform="translate(13.716 2.549)">
            <path id="Path_22037" data-name="Path 22037" d="M28.856,42.119V35.2L25.7,38.6Z" transform="translate(-25.7 -35.2)" fill="#246ea9"/>
          </g>
          <g id="Group_11017" data-name="Group 11017" transform="translate(3.884 3.399)">
            <path id="Path_22038" data-name="Path 22038" d="M17.6,35.9v1.578h4.491v1.7H17.6V41h4.977l2.306-2.549L22.7,35.9Z" transform="translate(-17.6 -35.9)" fill="#246ea9"/>
          </g>
          <g id="Group_11018" data-name="Group 11018" transform="translate(18.936 3.399)">
            <path id="Path_22039" data-name="Path 22039" d="M32.549,35.9H30v2.185h2.67c.728,0,1.214-.364,1.214-1.092A1.224,1.224,0,0,0,32.549,35.9Z" transform="translate(-30 -35.9)" fill="#246ea9"/>
          </g>
          <g id="Group_11019" data-name="Group 11019">
            <path id="Path_22040" data-name="Path 22040" d="M73.392,38.562V33.1h-5.1a3.983,3.983,0,0,0-2.549.728V33.1H60.161a3.852,3.852,0,0,0-2.428.728V33.1H47.9v.728a4.692,4.692,0,0,0-2.67-.728H38.677v.728a4.606,4.606,0,0,0-2.792-.728H28.6l-1.7,1.821L25.324,33.1H14.4V45H25.082l1.7-1.821L28.359,45h6.555V42.2h.85a7.384,7.384,0,0,0,2.792-.364v3.277h5.462V41.961h.243c.364,0,.364,0,.364.364v2.792H61.132a4.759,4.759,0,0,0,2.792-.728v.728h5.219a5.452,5.452,0,0,0,2.913-.607h0A4.132,4.132,0,0,0,74,40.869,4.649,4.649,0,0,0,73.392,38.562ZM35.763,40.5H33.336v2.913H29.451l-2.428-2.792-2.549,2.792H16.464V34.8H24.6l2.428,2.792L29.573,34.8h6.433c1.578,0,3.4.486,3.4,2.792C39.283,40.019,37.584,40.5,35.763,40.5ZM47.9,40.019a2.754,2.754,0,0,1,.364,1.578v1.7H46.2V42.2a2.71,2.71,0,0,0-.364-1.7c-.243-.364-.728-.364-1.457-.364H42.2V43.3H40.133V34.678h4.613a4.887,4.887,0,0,1,2.428.364,2.147,2.147,0,0,1,1.092,1.942,2.417,2.417,0,0,1-1.457,2.306A2.076,2.076,0,0,1,47.9,40.019Zm8.375-3.52H51.543v1.578h4.613v1.7H51.543v1.7h4.734V43.3h-6.8V34.678h6.8Zm5.1,6.8H57.491V41.475h3.884a1.024,1.024,0,0,0,.85-.243.88.88,0,0,0,0-1.214,1.026,1.026,0,0,0-.728-.243c-1.942-.121-4.248,0-4.248-2.67,0-1.214.728-2.549,2.913-2.549h4.006V36.62H60.4a1.8,1.8,0,0,0-.85.121c-.243.121-.243.364-.243.607,0,.364.243.486.486.607a1.54,1.54,0,0,0,.728.121h1.092a3.09,3.09,0,0,1,2.306.728,2.513,2.513,0,0,1,.607,1.821C64.531,42.446,63.439,43.3,61.375,43.3Zm10.439-.85a3.54,3.54,0,0,1-2.549.85H65.381V41.475h3.884a1.024,1.024,0,0,0,.85-.243.88.88,0,0,0,0-1.214,1.026,1.026,0,0,0-.728-.243c-1.942-.121-4.248,0-4.248-2.67,0-1.214.728-2.549,2.913-2.549h4.006V36.62H68.415a1.8,1.8,0,0,0-.85.121c-.243.121-.243.364-.243.607,0,.364.121.486.486.607a1.539,1.539,0,0,0,.728.121h1.092a3.09,3.09,0,0,1,2.306.728.119.119,0,0,1,.121.121,2.787,2.787,0,0,1,.486,1.7A2.47,2.47,0,0,1,71.814,42.446Z" transform="translate(-14.4 -33.1)" fill="#246ea9"/>
          </g>
          <g id="Group_11020" data-name="Group 11020" transform="translate(27.918 3.52)">
            <path id="Path_22041" data-name="Path 22041" d="M40.8,36.121A2.366,2.366,0,0,0,39.828,36H37.4v1.942h2.428a2.366,2.366,0,0,0,.971-.121.945.945,0,0,0,.364-.85A.675.675,0,0,0,40.8,36.121Z" transform="translate(-37.4 -36)" fill="#246ea9"/>
          </g>
        </g>
      </g>
      <g id="Group_11030" data-name="Group 11030" transform="translate(30.588 3.156)">
        <g id="Group_11025" data-name="Group 11025" transform="translate(5.705 0)">
          <g id="Group_11023" data-name="Group 11023" transform="translate(0 0.364)">
            <path id="Path_22042" data-name="Path 22042" d="M33.8,24.121A2.366,2.366,0,0,0,32.828,24H30.4v1.942h2.428a2.366,2.366,0,0,0,.971-.121.945.945,0,0,0,.364-.85A.675.675,0,0,0,33.8,24.121Z" transform="translate(-30.4 -24)" fill="#246ea9"/>
          </g>
          <g id="Group_11024" data-name="Group 11024" transform="translate(18.086)">
            <path id="Path_22043" data-name="Path 22043" d="M45.3,27.1h2.792l-1.335-3.4Z" transform="translate(-45.3 -23.7)" fill="#246ea9"/>
          </g>
        </g>
        <g id="Group_11029" data-name="Group 11029" transform="translate(0 13.959)">
          <g id="Group_11026" data-name="Group 11026">
            <path id="Path_22044" data-name="Path 22044" d="M28.856,42.119V35.2L25.7,38.6Z" transform="translate(-25.7 -35.2)" fill="#246ea9"/>
          </g>
          <g id="Group_11027" data-name="Group 11027" transform="translate(5.219 0.85)">
            <path id="Path_22045" data-name="Path 22045" d="M32.549,35.9H30v2.185h2.67c.728,0,1.214-.364,1.214-1.092A1.224,1.224,0,0,0,32.549,35.9Z" transform="translate(-30 -35.9)" fill="#246ea9"/>
          </g>
          <g id="Group_11028" data-name="Group 11028" transform="translate(14.202 0.971)">
            <path id="Path_22046" data-name="Path 22046" d="M40.8,36.121A2.366,2.366,0,0,0,39.828,36H37.4v1.942h2.428a2.366,2.366,0,0,0,.971-.121.945.945,0,0,0,.364-.85A.675.675,0,0,0,40.8,36.121Z" transform="translate(-37.4 -36)" fill="#246ea9"/>
          </g>
        </g>
      </g>
      <g id="Group_11031" data-name="Group 11031" transform="translate(16.872 14.566)">
        <path id="Path_22047" data-name="Path 22047" d="M35.035,43.053l-1.7-1.821V43.3H29.33L26.9,40.5,24.232,43.3H16.221V34.8h8.133L26.9,37.591l1.214-1.457L25.082,33.1H14.4V45H25.082L26.9,43.175,28.48,45h6.555Z" transform="translate(-14.4 -33.1)" fill="#246ea9"/>
      </g>
      <g id="Group_11034" data-name="Group 11034" transform="translate(0 0)">
        <g id="Group_11032" data-name="Group 11032">
          <path id="Path_22048" data-name="Path 22048" d="M25.383,33l-1.578-1.7h-.728v-.728l-1.821-1.821L20.043,31.3h-1.7L15.43,24.62V31.3H11.3l-.85-1.821H6.326L5.477,31.3H3.292l3.641-8.5H9.968l3.4,8.133V22.8h1.821l-1.7-1.7H11.667v1.457L11.06,21.1H5.719L3.292,26.8.5,33H6.812l.728-1.821h1.7L10.089,33h6.8V31.539L17.494,33h3.52l.607-1.457V33Z" transform="translate(-0.5 -21.1)" fill="#246ea9"/>
        </g>
        <g id="Group_11033" data-name="Group 11033" transform="translate(17.358 4.37)">
          <path id="Path_22049" data-name="Path 22049" d="M16.742,26.642,14.8,24.7l1.457,3.156Z" transform="translate(-14.8 -24.7)" fill="#246ea9"/>
        </g>
      </g>
      <g id="Group_11037" data-name="Group 11037" transform="translate(26.461 14.202)">
        <g id="Group_11035" data-name="Group 11035" transform="translate(0 0)">
          <path id="Path_22050" data-name="Path 22050" d="M70.368,44.453a4.44,4.44,0,0,0,1.942-3.277l-1.7-1.7a3.591,3.591,0,0,1,.243,1.214,2.47,2.47,0,0,1-.728,1.821,3.54,3.54,0,0,1-2.549.85H63.692V41.54h3.884a1.024,1.024,0,0,0,.85-.243.88.88,0,0,0,0-1.214,1.026,1.026,0,0,0-.728-.243c-1.942-.121-4.248,0-4.248-2.67,0-1.214.728-2.306,2.549-2.549l-1.335-1.335c-.243.121-.364.243-.486.243V32.8H58.593a3.852,3.852,0,0,0-2.428.728V32.8H46.212v.728a4.692,4.692,0,0,0-2.67-.728H36.987v.728A4.606,4.606,0,0,0,34.2,32.8H26.913l-1.7,1.821L23.635,32.8H22.3l3.641,3.641L27.762,34.5H34.2c1.578,0,3.4.486,3.4,2.792,0,2.428-1.7,2.913-3.52,2.913H31.646v1.821l1.821,1.821V42.025h.607a7.384,7.384,0,0,0,2.792-.364v3.277h5.462V41.782h.243c.364,0,.364,0,.364.364v2.792H59.443a4.759,4.759,0,0,0,2.792-.728v.728h5.219a4.816,4.816,0,0,0,2.913-.486Zm-24.155-4.37a2.754,2.754,0,0,1,.364,1.578v1.7H44.513V42.268a2.71,2.71,0,0,0-.364-1.7c-.243-.364-.728-.364-1.457-.364H40.507V43.36H38.444V34.742h4.613a4.887,4.887,0,0,1,2.428.364,2.147,2.147,0,0,1,1.092,1.942,2.417,2.417,0,0,1-1.457,2.306A2.076,2.076,0,0,1,46.212,40.083Zm8.375-3.52H49.854v1.578h4.613v1.7H49.854v1.7h4.734V43.36h-6.8V34.742h6.8Zm5.1,6.8H55.8V41.54h3.884a1.024,1.024,0,0,0,.85-.243.88.88,0,0,0,0-1.214,1.026,1.026,0,0,0-.728-.243c-1.942-.121-4.248,0-4.248-2.67,0-1.214.728-2.549,2.913-2.549h4.006v2.064H58.715a1.8,1.8,0,0,0-.85.121c-.243.121-.243.364-.243.607,0,.364.243.486.486.607a1.54,1.54,0,0,0,.728.121h1.092a3.09,3.09,0,0,1,2.306.728,2.513,2.513,0,0,1,.607,1.821C62.842,42.511,61.749,43.36,59.686,43.36Z" transform="translate(-22.3 -32.8)" fill="#246ea9"/>
        </g>
        <g id="Group_11036" data-name="Group 11036" transform="translate(43.212 3.884)">
          <path id="Path_22051" data-name="Path 22051" d="M57.9,36.728c0,.364.121.486.486.607a1.54,1.54,0,0,0,.728.121h1.092a3.525,3.525,0,0,1,1.7.364L60.085,36H58.992a1.8,1.8,0,0,0-.85.121A.927.927,0,0,0,57.9,36.728Z" transform="translate(-57.9 -36)" fill="#246ea9"/>
        </g>
      </g>
      <g id="Group_11041" data-name="Group 11041" transform="translate(12.017 0.121)">
        <g id="Group_11038" data-name="Group 11038" transform="translate(53.408 11.41)">
          <path id="Path_22052" data-name="Path 22052" d="M54.4,30.6l.243.364h.121Z" transform="translate(-54.4 -30.6)" fill="#246ea9"/>
        </g>
        <g id="Group_11039" data-name="Group 11039" transform="translate(46.732 4.734)">
          <path id="Path_22053" data-name="Path 22053" d="M48.9,25.1l2.064,4.977V27.164Z" transform="translate(-48.9 -25.1)" fill="#246ea9"/>
        </g>
        <g id="Group_11040" data-name="Group 11040">
          <path id="Path_22054" data-name="Path 22054" d="M36.376,29.94h.243c.243,0,.243,0,.243.364v2.67H45.6v-.728a7.271,7.271,0,0,0,3.277.728H52.52l.728-1.942h1.7l.728,1.942h7.04V31.76l-1.7-1.7V31.4H56.89l-.607-1.942H52.034L51.306,31.4H49a4.238,4.238,0,0,1-2.913-.971,4.266,4.266,0,0,1-1.092-3.277,4.975,4.975,0,0,1,1.092-3.4,3.826,3.826,0,0,1,3.035-.971h1.942V24.6H49.121a2.238,2.238,0,0,0-1.578.486,2.85,2.85,0,0,0-.607,1.942,2.641,2.641,0,0,0,.607,2.064A1.935,1.935,0,0,0,49,29.575h.85L52.641,22.9h1.214l-1.7-1.7H49a7.39,7.39,0,0,0-3.4.728V21.2H40.26v.728a3.5,3.5,0,0,0-2.306-.728H18.411l-1.335,3.035L15.741,21.2H10.4l1.7,1.7h2.428l2.064,4.491.728.728L19.5,22.778h3.4V31.4H20.839V24.72l-2.064,4.855L22.3,33.1H36.255Zm5.584-7.162h2.064V31.4H41.96ZM31.278,24.6H26.544v1.578h4.613v1.7H26.544v1.7h4.734V31.4h-6.8V22.778h6.8Zm3.4,6.676H32.613V22.657h4.613a4.653,4.653,0,0,1,2.428.364,2.068,2.068,0,0,1,.971,1.942,2.417,2.417,0,0,1-1.457,2.306,1.589,1.589,0,0,1,.971.728,3.037,3.037,0,0,1,.364,1.578v1.7H38.439V30.182a2.891,2.891,0,0,0-.364-1.7c-.121-.243-.486-.243-1.214-.243H34.677v3.035Z" transform="translate(-10.4 -21.2)" fill="#246ea9"/>
        </g>
      </g>
    </g>
  </g>
</svg>
