<svg xmlns="http://www.w3.org/2000/svg" width="34" height="34" viewBox="0 0 34 34">
  <g id="apple_store" data-name="apple store" transform="translate(-788.013 -896)">
    <g id="Rectangle_4518" data-name="Rectangle 4518" transform="translate(788.013 896)" fill="#fff" stroke="#707070" stroke-width="1" opacity="0">
      <rect width="34" height="34" stroke="none"/>
      <rect x="0.5" y="0.5" width="33" height="33" fill="none"/>
    </g>
    <path id="Icon_awesome-apple" data-name="Icon awesome-apple" d="M21.127,17.929a6.184,6.184,0,0,1,3.312-5.617,7.117,7.117,0,0,0-5.611-2.954c-2.352-.185-4.922,1.371-5.862,1.371-.994,0-3.272-1.3-5.061-1.3-3.7.06-7.624,2.948-7.624,8.823a16.51,16.51,0,0,0,.954,5.379c.848,2.431,3.908,8.393,7.1,8.293,1.669-.04,2.848-1.186,5.021-1.186,2.106,0,3.2,1.186,5.061,1.186,3.219-.046,5.988-5.465,6.8-7.9a6.566,6.566,0,0,1-4.087-6.087ZM17.378,7.052a6.239,6.239,0,0,0,1.59-4.8,7.024,7.024,0,0,0-4.5,2.312,6.337,6.337,0,0,0-1.7,4.763,5.563,5.563,0,0,0,4.6-2.272Z" transform="translate(792.266 895.915)" fill="#e4e4e4"/>
  </g>
</svg>
