<svg xmlns="http://www.w3.org/2000/svg" width="92" height="56" viewBox="0 0 92 56">
  <g id="mastercard" transform="translate(-175.497 -553)">
    <g id="mastercard-2" data-name="mastercard" transform="translate(175.47 552.597)">
      <rect id="bg" width="92" height="56" rx="8" transform="translate(0.026 0.403)" fill="rgba(255,133,0,0.2)"/>
      <g id="mastercard-3" data-name="mastercard" transform="translate(17.258 10.884)">
        <g id="Group_10930" data-name="Group 10930" transform="translate(23.358 0)">
          <g id="Group_10929" data-name="Group 10929">
            <path id="Path_21992" data-name="Path 21992" d="M60.737,30.618a17.518,17.518,0,0,1-35.037,0h0a17.518,17.518,0,1,1,35.037,0Z" transform="translate(-25.7 -13.1)" fill="#ffb600"/>
          </g>
        </g>
        <g id="Group_10932" data-name="Group 10932" transform="translate(23.358 0)">
          <g id="Group_10931" data-name="Group 10931">
            <path id="Path_21993" data-name="Path 21993" d="M43.218,13.1A17.564,17.564,0,0,1,60.737,30.618h0a17.518,17.518,0,0,1-35.037,0" transform="translate(-25.7 -13.1)" fill="#f7981d"/>
          </g>
        </g>
        <g id="Group_10934" data-name="Group 10934" transform="translate(40.876 0)">
          <g id="Group_10933" data-name="Group 10933">
            <path id="Path_21994" data-name="Path 21994" d="M44.6,13.1A17.564,17.564,0,0,1,62.118,30.618h0A17.5,17.5,0,0,1,44.6,48.137" transform="translate(-44.6 -13.1)" fill="#ff8500"/>
          </g>
        </g>
        <g id="Group_10936" data-name="Group 10936" transform="translate(0 0)">
          <g id="Group_10935" data-name="Group 10935">
            <path id="Path_21995" data-name="Path 21995" d="M17.833,13.1a17.519,17.519,0,0,0,.185,35.037A17.722,17.722,0,0,0,29.79,43.595h0a16.655,16.655,0,0,0,1.761-1.854H27.936a21.382,21.382,0,0,1-1.3-1.761h6.21a11.874,11.874,0,0,0,1.02-1.854H25.619a11.046,11.046,0,0,1-.742-1.854h9.64a18.4,18.4,0,0,0,.927-5.561A23.926,23.926,0,0,0,35.073,27H24.321a13.549,13.549,0,0,1,.463-1.854h9.64a11.047,11.047,0,0,0-.742-1.854H25.526a18.381,18.381,0,0,1,1.02-1.854h6.21a8.815,8.815,0,0,0-1.39-1.854h-3.43A15.8,15.8,0,0,1,29.7,17.827a17.1,17.1,0,0,0-11.772-4.542C17.926,13.1,17.926,13.1,17.833,13.1Z" transform="translate(-0.5 -13.1)" fill="#ff5050"/>
          </g>
        </g>
        <g id="Group_10938" data-name="Group 10938" transform="translate(0 0.185)">
          <g id="Group_10937" data-name="Group 10937">
            <path id="Path_21996" data-name="Path 21996" d="M.5,30.633A17.5,17.5,0,0,0,18.018,48.151,17.722,17.722,0,0,0,29.79,43.609h0a16.655,16.655,0,0,0,1.761-1.854H27.936a21.38,21.38,0,0,1-1.3-1.761h6.21a11.874,11.874,0,0,0,1.02-1.854H25.619a11.047,11.047,0,0,1-.742-1.854h9.64a18.4,18.4,0,0,0,.927-5.561,23.926,23.926,0,0,0-.371-3.708H24.321a13.55,13.55,0,0,1,.463-1.854h9.64a11.048,11.048,0,0,0-.742-1.854H25.526a18.38,18.38,0,0,1,1.02-1.854h6.21a8.814,8.814,0,0,0-1.39-1.854h-3.43A15.8,15.8,0,0,1,29.7,17.842,17.1,17.1,0,0,0,17.926,13.3h-.093" transform="translate(-0.5 -13.3)" fill="#e52836"/>
          </g>
        </g>
        <g id="Group_10940" data-name="Group 10940" transform="translate(17.333 0.185)">
          <g id="Group_10939" data-name="Group 10939">
            <path id="Path_21997" data-name="Path 21997" d="M19.385,48.151a17.722,17.722,0,0,0,11.772-4.542h0a16.655,16.655,0,0,0,1.761-1.854H29.3a21.38,21.38,0,0,1-1.3-1.761h6.21a11.874,11.874,0,0,0,1.02-1.854H26.986a11.048,11.048,0,0,1-.742-1.854h9.64a18.4,18.4,0,0,0,.927-5.561,23.924,23.924,0,0,0-.371-3.708H25.688a13.549,13.549,0,0,1,.463-1.854h9.64a11.049,11.049,0,0,0-.742-1.854H26.893a18.379,18.379,0,0,1,1.02-1.854h6.21a8.813,8.813,0,0,0-1.39-1.854H29.3a15.8,15.8,0,0,1,1.761-1.761A17.1,17.1,0,0,0,19.293,13.3H19.2" transform="translate(-19.2 -13.3)" fill="#cb2026"/>
          </g>
        </g>
        <g id="Group_10961" data-name="Group 10961" transform="translate(1.668 12.977)">
          <g id="Group_10942" data-name="Group 10942" transform="translate(19.372 0.834)">
            <g id="Group_10941" data-name="Group 10941">
              <path id="Path_21998" data-name="Path 21998" d="M25.888,36.157l.278-1.576a4.014,4.014,0,0,1-.463.093c-.649,0-.742-.371-.649-.556l.556-3.244h1.02l.278-1.761h-.927L26.166,28H24.312S23.2,34.117,23.2,34.859a1.391,1.391,0,0,0,1.483,1.576A2.845,2.845,0,0,0,25.888,36.157Z" transform="translate(-23.2 -28)" fill="#fff"/>
            </g>
          </g>
          <g id="Group_10944" data-name="Group 10944" transform="translate(22.709 1.842)">
            <g id="Group_10943" data-name="Group 10943">
              <path id="Path_21999" data-name="Path 21999" d="M26.8,33.27a2.948,2.948,0,0,0,3.244,3.244,4.812,4.812,0,0,0,1.946-.278l.371-1.761a5.557,5.557,0,0,1-1.946.463c-2.039,0-1.668-1.483-1.668-1.483h3.8a12.018,12.018,0,0,0,.278-1.668A2.511,2.511,0,0,0,30.137,29.1C28.19,28.914,26.8,30.953,26.8,33.27Zm3.244-2.688c1.02,0,.834,1.2.834,1.3H28.839C28.839,31.787,29.025,30.582,30.044,30.582Z" transform="translate(-26.8 -29.087)" fill="#fff"/>
            </g>
          </g>
          <g id="Group_10946" data-name="Group 10946" transform="translate(32.627)">
            <g id="Group_10945" data-name="Group 10945">
              <path id="Path_22000" data-name="Path 22000" d="M42.6,36.091l.371-2.039a4.555,4.555,0,0,1-1.576.463c-1.3,0-1.854-1.02-1.854-2.132,0-2.225,1.112-3.43,2.41-3.43a3.1,3.1,0,0,1,1.668.556l.278-1.946a6.517,6.517,0,0,0-2.132-.463c-2.132,0-4.264,1.854-4.264,5.376,0,2.317,1.112,3.893,3.337,3.893A8.319,8.319,0,0,0,42.6,36.091Z" transform="translate(-37.5 -27.1)" fill="#fff"/>
            </g>
          </g>
          <g id="Group_10948" data-name="Group 10948" transform="translate(8.342 1.668)">
            <g id="Group_10947" data-name="Group 10947">
              <path id="Path_22001" data-name="Path 22001" d="M14.822,28.9a6.565,6.565,0,0,0-2.225.371l-.278,1.576a5.479,5.479,0,0,1,2.039-.371c.649,0,1.2.093,1.2.649,0,.371-.093.463-.093.463h-.834c-1.576,0-3.337.649-3.337,2.781,0,1.668,1.112,2.039,1.761,2.039a2.785,2.785,0,0,0,1.946-.834l-.093.742h1.668l.742-5.1A2.2,2.2,0,0,0,14.822,28.9Zm.371,4.171c0,.278-.185,1.761-1.3,1.761a.724.724,0,0,1-.742-.742c0-.463.278-1.112,1.668-1.112A1.462,1.462,0,0,0,15.193,33.071Z" transform="translate(-11.3 -28.9)" fill="#fff"/>
            </g>
          </g>
          <g id="Group_10950" data-name="Group 10950" transform="translate(13.996 1.576)">
            <g id="Group_10949" data-name="Group 10949">
              <path id="Path_22002" data-name="Path 22002" d="M19.532,36.4a2.376,2.376,0,0,0,2.781-2.41c0-2.317-2.225-1.854-2.225-2.781,0-.463.371-.649,1.02-.649.278,0,1.3.093,1.3.093l.278-1.668a7.04,7.04,0,0,0-1.761-.185c-1.39,0-2.781.556-2.781,2.41,0,2.132,2.317,1.946,2.317,2.781,0,.556-.649.649-1.112.649a6.062,6.062,0,0,1-1.668-.278L17.4,36.03C17.493,36.215,17.956,36.4,19.532,36.4Z" transform="translate(-17.4 -28.8)" fill="#fff"/>
            </g>
          </g>
          <g id="Group_10952" data-name="Group 10952" transform="translate(47.828 0.185)">
            <g id="Group_10951" data-name="Group 10951">
              <path id="Path_22003" data-name="Path 22003" d="M59.183,27.3l-.371,2.5a2.57,2.57,0,0,0-1.761-.927c-1.668,0-3.151,2.039-3.151,4.449,0,1.483.742,3.059,2.317,3.059a2.474,2.474,0,0,0,1.761-.742l-.093.649h1.854l1.39-8.9Zm-.834,4.913c0,1.02-.463,2.317-1.483,2.317-.649,0-1.02-.556-1.02-1.483,0-1.483.649-2.41,1.483-2.41C57.978,30.637,58.349,31.1,58.349,32.213Z" transform="translate(-53.9 -27.3)" fill="#fff"/>
            </g>
          </g>
          <g id="Group_10954" data-name="Group 10954" transform="translate(0 0.185)">
            <g id="Group_10953" data-name="Group 10953">
              <path id="Path_22004" data-name="Path 22004" d="M4.061,36.2l1.112-6.674L5.359,36.2h1.3l2.41-6.674L8.047,36.2H9.993l1.483-8.9H8.417L6.564,32.769,6.471,27.3H3.783L2.3,36.2Z" transform="translate(-2.3 -27.3)" fill="#fff"/>
            </g>
          </g>
          <g id="Group_10956" data-name="Group 10956" transform="translate(28.456 1.854)">
            <g id="Group_10955" data-name="Group 10955">
              <path id="Path_22005" data-name="Path 22005" d="M35.039,36.33c.556-3.059.649-5.561,1.946-5.1a7.275,7.275,0,0,1,.649-2.132h-.371c-.834,0-1.483,1.112-1.483,1.112l.185-1.02H34.2L33,36.422h2.039Z" transform="translate(-33 -29.1)" fill="#fff"/>
            </g>
          </g>
          <g id="Group_10958" data-name="Group 10958" transform="translate(38.466 1.668)">
            <g id="Group_10957" data-name="Group 10957">
              <path id="Path_22006" data-name="Path 22006" d="M47.322,28.9a6.565,6.565,0,0,0-2.225.371l-.278,1.576a5.479,5.479,0,0,1,2.039-.371c.649,0,1.2.093,1.2.649,0,.371-.093.463-.093.463h-.834c-1.576,0-3.337.649-3.337,2.781,0,1.668,1.112,2.039,1.761,2.039a2.785,2.785,0,0,0,1.946-.834l-.093.742h1.668l.742-5.1A2.164,2.164,0,0,0,47.322,28.9Zm.463,4.171c0,.278-.185,1.761-1.3,1.761a.724.724,0,0,1-.742-.742c0-.463.278-1.112,1.668-1.112C47.693,33.071,47.693,33.071,47.786,33.071Z" transform="translate(-43.8 -28.9)" fill="#fff"/>
            </g>
          </g>
          <g id="Group_10960" data-name="Group 10960" transform="translate(44.027 1.854)">
            <g id="Group_10959" data-name="Group 10959">
              <path id="Path_22007" data-name="Path 22007" d="M51.839,36.33c.556-3.059.649-5.561,1.946-5.1a7.275,7.275,0,0,1,.649-2.132h-.371c-.834,0-1.483,1.112-1.483,1.112l.185-1.02H51l-1.2,7.23h2.039Z" transform="translate(-49.8 -29.1)" fill="#fff"/>
            </g>
          </g>
        </g>
        <g id="Group_10982" data-name="Group 10982" transform="translate(1.668 12.977)">
          <g id="Group_10963" data-name="Group 10963" transform="translate(19.187 0.834)">
            <g id="Group_10962" data-name="Group 10962">
              <path id="Path_22008" data-name="Path 22008" d="M23,34.859a1.391,1.391,0,0,0,1.483,1.576,3.528,3.528,0,0,0,1.39-.278l.278-1.576a4.014,4.014,0,0,1-.463.093c-.649,0-.742-.371-.649-.556l.556-3.244h1.02l.278-1.761h-.927L26.151,28" transform="translate(-23 -28)" fill="#dce5e5"/>
            </g>
          </g>
          <g id="Group_10965" data-name="Group 10965" transform="translate(23.636 1.842)">
            <g id="Group_10964" data-name="Group 10964">
              <path id="Path_22009" data-name="Path 22009" d="M27.8,33.27c0,2.6.834,3.244,2.317,3.244a4.812,4.812,0,0,0,1.946-.278l.371-1.761a5.557,5.557,0,0,1-1.946.463c-2.039,0-1.668-1.483-1.668-1.483h3.8a12.018,12.018,0,0,0,.278-1.668A2.511,2.511,0,0,0,30.21,29.1C28.263,28.914,27.8,30.953,27.8,33.27Zm2.317-2.688c1.02,0,1.2,1.2,1.2,1.3h-2.41C28.912,31.787,29.1,30.582,30.117,30.582Z" transform="translate(-27.8 -29.087)" fill="#dce5e5"/>
            </g>
          </g>
          <g id="Group_10967" data-name="Group 10967" transform="translate(33.554)">
            <g id="Group_10966" data-name="Group 10966">
              <path id="Path_22010" data-name="Path 22010" d="M42.671,36.091l.371-2.039a4.555,4.555,0,0,1-1.576.463c-1.3,0-1.854-1.02-1.854-2.132,0-2.225,1.112-3.43,2.41-3.43a3.1,3.1,0,0,1,1.668.556l.278-1.946a6.517,6.517,0,0,0-2.132-.463c-2.132,0-3.337,1.854-3.337,5.376,0,2.317.185,3.893,2.41,3.893A8.319,8.319,0,0,0,42.671,36.091Z" transform="translate(-38.5 -27.1)" fill="#dce5e5"/>
            </g>
          </g>
          <g id="Group_10969" data-name="Group 10969" transform="translate(8.342 1.854)">
            <g id="Group_10968" data-name="Group 10968">
              <path id="Path_22011" data-name="Path 22011" d="M12.32,30.954a5.479,5.479,0,0,1,2.039-.371c.649,0,1.2.093,1.2.649,0,.371-.093.463-.093.463h-.834c-1.576,0-3.337.649-3.337,2.781,0,1.668,1.112,2.039,1.761,2.039a2.785,2.785,0,0,0,1.946-.834l-.093.742h1.668l.742-5.1c0-2.132-1.854-2.225-2.6-2.225m1.39,3.986A3.035,3.035,0,0,1,13.9,34.847a.724.724,0,0,1-.742-.742c0-.463.278-1.112,1.668-1.112A7.573,7.573,0,0,0,16.12,33.086Z" transform="translate(-11.3 -29.1)" fill="#dce5e5"/>
            </g>
          </g>
          <g id="Group_10971" data-name="Group 10971" transform="translate(14.089 1.576)">
            <g id="Group_10970" data-name="Group 10970">
              <path id="Path_22012" data-name="Path 22012" d="M17.5,36.215a7.845,7.845,0,0,0,2.132.185,2.376,2.376,0,0,0,2.781-2.41c0-2.317-2.225-1.854-2.225-2.781,0-.463.371-.649,1.02-.649.278,0,1.3.093,1.3.093l.278-1.668a7.04,7.04,0,0,0-1.761-.185c-1.39,0-1.854.556-1.854,2.41,0,2.132,1.39,1.946,1.39,2.781,0,.556-.649.649-1.112.649" transform="translate(-17.5 -28.8)" fill="#dce5e5"/>
            </g>
          </g>
          <g id="Group_10973" data-name="Group 10973" transform="translate(48.748 0.278)">
            <g id="Group_10972" data-name="Group 10972">
              <path id="Path_22013" data-name="Path 22013" d="M58.885,29.81a2.57,2.57,0,0,0-1.761-.927c-1.668,0-2.225,2.039-2.225,4.449,0,1.483-.185,3.059,1.39,3.059a2.474,2.474,0,0,0,1.761-.742l-.093.649h1.854l1.39-8.9m-2.41,4.82c0,1.02-.834,2.317-1.854,2.317-.649,0-1.02-.556-1.02-1.483,0-1.483.649-2.41,1.483-2.41A1.416,1.416,0,0,1,58.792,32.22Z" transform="translate(-54.893 -27.4)" fill="#dce5e5"/>
            </g>
          </g>
          <g id="Group_10975" data-name="Group 10975" transform="translate(0 0.185)">
            <g id="Group_10974" data-name="Group 10974">
              <path id="Path_22014" data-name="Path 22014" d="M4.061,36.2l1.112-6.674L5.359,36.2h1.3l2.41-6.674L8.047,36.2H9.993l1.483-8.9H9.159l-2.6,5.469L6.471,27.3H5.451L2.3,36.2Z" transform="translate(-2.3 -27.3)" fill="#dce5e5"/>
            </g>
          </g>
          <g id="Group_10977" data-name="Group 10977" transform="translate(28.548 1.854)">
            <g id="Group_10976" data-name="Group 10976">
              <path id="Path_22015" data-name="Path 22015" d="M33.1,36.33h1.946c.556-3.059.649-5.561,1.946-5.1a7.275,7.275,0,0,1,.649-2.132h-.371c-.834,0-1.483,1.112-1.483,1.112l.185-1.02" transform="translate(-33.1 -29.1)" fill="#dce5e5"/>
            </g>
          </g>
          <g id="Group_10979" data-name="Group 10979" transform="translate(38.466 1.854)">
            <g id="Group_10978" data-name="Group 10978">
              <path id="Path_22016" data-name="Path 22016" d="M44.82,30.954a5.479,5.479,0,0,1,2.039-.371c.649,0,1.2.093,1.2.649,0,.371-.093.463-.093.463h-.834c-1.576,0-3.337.649-3.337,2.781,0,1.668,1.112,2.039,1.761,2.039a2.785,2.785,0,0,0,1.946-.834l-.093.742h1.668l.742-5.1c0-2.132-1.854-2.225-2.6-2.225m1.39,3.986A3.035,3.035,0,0,1,46.4,34.847a.724.724,0,0,1-.742-.742c0-.463.278-1.112,1.668-1.112A8.155,8.155,0,0,0,48.62,33.086Z" transform="translate(-43.8 -29.1)" fill="#dce5e5"/>
            </g>
          </g>
          <g id="Group_10981" data-name="Group 10981" transform="translate(44.12 1.854)">
            <g id="Group_10980" data-name="Group 10980">
              <path id="Path_22017" data-name="Path 22017" d="M49.9,36.33h1.946c.556-3.059.649-5.561,1.946-5.1a7.276,7.276,0,0,1,.649-2.132h-.371c-.834,0-1.483,1.112-1.483,1.112l.185-1.02" transform="translate(-49.9 -29.1)" fill="#dce5e5"/>
            </g>
          </g>
        </g>
      </g>
    </g>
  </g>
</svg>
