<svg xmlns="http://www.w3.org/2000/svg" width="92" height="56" viewBox="0 0 92 56">
  <g id="paypal" transform="translate(-0.212 -0.516)">
    <g id="bg" transform="translate(0.212 0.516)" fill="#fff" stroke="#ddd" stroke-width="0.5">
      <rect width="92" height="56" rx="8" stroke="none"/>
      <rect x="0.25" y="0.25" width="91.5" height="55.5" rx="7.75" fill="none"/>
    </g>
    <g id="_1156727_finance_payment_paypal_icon" data-name="1156727_finance_payment_paypal_icon" transform="translate(7.289 18.569)">
      <g id="Group_11616" data-name="Group 11616" transform="translate(-0.431)">
        <g id="Group_11605" data-name="Group 11605" transform="translate(42.628 14.189)">
          <path id="Path_22066" data-name="Path 22066" d="M50.449,28.2h-4.2a.821.821,0,0,0-.618.494L43.9,39.568a.328.328,0,0,0,.371.371h2.224a.328.328,0,0,0,.371-.371l.494-3.089a.565.565,0,0,1,.618-.494h1.359q4.263,0,4.819-4.078a3.239,3.239,0,0,0-.494-2.718,4.984,4.984,0,0,0-3.213-.989m.494,4.078c-.247,1.483-1.359,1.483-2.471,1.483h-.741l.494-2.842c0-.124.124-.247.371-.247h.247c.741,0,1.483,0,1.853.494.247.124.247.494.247,1.112" transform="translate(-43.9 -28.2)" fill="#139ad6"/>
        </g>
        <g id="Group_11606" data-name="Group 11606" transform="translate(12.354 14.189)">
          <path id="Path_22067" data-name="Path 22067" d="M25.949,28.2h-4.2a.821.821,0,0,0-.618.494L19.4,39.568a.328.328,0,0,0,.371.371h1.977a.821.821,0,0,0,.618-.494l.494-2.966a.565.565,0,0,1,.618-.494h1.359q4.263,0,4.819-4.078a3.239,3.239,0,0,0-.494-2.718,4.749,4.749,0,0,0-3.213-.989m.494,4.078c-.247,1.483-1.359,1.483-2.471,1.483h-.618l.494-2.842c0-.124.124-.247.371-.247h.247c.741,0,1.483,0,1.853.494a1.324,1.324,0,0,1,.124,1.112" transform="translate(-19.4 -28.2)" fill="#263b80"/>
        </g>
        <g id="Group_11607" data-name="Group 11607" transform="translate(22.039 17.896)">
          <path id="Path_22068" data-name="Path 22068" d="M36.829,31.447H34.852c-.124,0-.371.124-.371.247l-.124.618-.124-.247a2.907,2.907,0,0,0-2.348-.865,4.748,4.748,0,0,0-4.572,4.078,3.683,3.683,0,0,0,.741,3.089,3.114,3.114,0,0,0,2.595.989,3.95,3.95,0,0,0,2.842-1.112l-.124.618a.328.328,0,0,0,.371.371h1.853a.821.821,0,0,0,.618-.494l1.112-6.92c-.124-.124-.371-.371-.494-.371M33.987,35.4a2.39,2.39,0,0,1-2.348,1.977,1.976,1.976,0,0,1-1.359-.494A2.635,2.635,0,0,1,29.91,35.4a2.2,2.2,0,0,1,3.583-1.483,2.157,2.157,0,0,1,.494,1.483" transform="translate(-27.237 -31.2)" fill="#263b80"/>
        </g>
        <g id="Group_11608" data-name="Group 11608" transform="translate(52.188 17.896)">
          <path id="Path_22069" data-name="Path 22069" d="M61.229,31.447H59.252c-.124,0-.371.124-.371.247l-.124.618-.124-.247a2.907,2.907,0,0,0-2.348-.865,4.748,4.748,0,0,0-4.572,4.078,3.683,3.683,0,0,0,.741,3.089,3.114,3.114,0,0,0,2.595.989,3.95,3.95,0,0,0,2.842-1.112l-.124.618a.328.328,0,0,0,.371.371h1.853a.821.821,0,0,0,.618-.494l1.112-6.92c-.124-.124-.247-.371-.494-.371M58.387,35.4a2.39,2.39,0,0,1-2.348,1.977,1.976,1.976,0,0,1-1.359-.494A2.635,2.635,0,0,1,54.31,35.4a2.2,2.2,0,0,1,3.583-1.483,1.418,1.418,0,0,1,.494,1.483" transform="translate(-51.637 -31.2)" fill="#139ad6"/>
        </g>
        <g id="Group_11612" data-name="Group 11612" transform="translate(-11 9)">
          <g id="Group_11609" data-name="Group 11609" transform="translate(43.866 9.144)">
            <path id="Path_22070" data-name="Path 22070" d="M45.515,31.4h-2.1a.642.642,0,0,0-.494.247l-2.718,4.2-1.236-3.954a.571.571,0,0,0-.618-.371H36.371c-.247,0-.371.247-.371.494l2.224,6.549-2.1,2.966c-.124.247,0,.618.247.618h1.977a.642.642,0,0,0,.494-.247l6.8-9.762c.371-.371.124-.741-.124-.741" transform="translate(-36 -31.4)" fill="#263b80"/>
          </g>
          <g id="Group_11610" data-name="Group 11610" transform="translate(73.398 5.265)">
            <path id="Path_22071" data-name="Path 22071" d="M61.63,28.556,59.9,39.677a.328.328,0,0,0,.371.371H62a.821.821,0,0,0,.618-.494l1.73-10.874a.328.328,0,0,0-.371-.371H62c-.124-.124-.247,0-.371.247" transform="translate(-59.9 -28.261)" fill="#139ad6"/>
          </g>
        </g>
      </g>
      <g id="Group_11615" data-name="Group 11615" transform="translate(30.923 -9.581)">
        <g id="Group_11611" data-name="Group 11611">
          <path id="Path_22072" data-name="Path 22072" d="M14.71,25.483c-.865-.989-2.471-1.483-4.7-1.483H3.836a1.06,1.06,0,0,0-.865.741L.5,40.929a.565.565,0,0,0,.494.618H4.825l.989-6.055v.247A1.06,1.06,0,0,1,6.678,35H8.532c3.583,0,6.3-1.483,7.167-5.56v-.371h0a4.315,4.315,0,0,0-.989-3.583" transform="translate(-0.5 -24)" fill="#263b80"/>
        </g>
        <g id="Group_11613" data-name="Group 11613" transform="translate(3.954 5.066)">
          <path id="Path_22073" data-name="Path 22073" d="M14.821,28.1h0v.371c-.865,4.2-3.583,5.56-7.167,5.56H5.8a1.06,1.06,0,0,0-.865.741L3.7,42.31a.453.453,0,0,0,.494.494H7.407a.692.692,0,0,0,.741-.618v-.124l.618-3.831v-.247a.692.692,0,0,1,.741-.618H10c3.089,0,5.56-1.236,6.178-4.943a4.543,4.543,0,0,0-.618-3.707,1.265,1.265,0,0,0-.741-.618" transform="translate(-3.7 -28.1)" fill="#139ad6"/>
        </g>
        <g id="Group_11614" data-name="Group 11614" transform="translate(5.313 4.325)">
          <path id="Path_22074" data-name="Path 22074" d="M13.7,27.871c-.124,0-.247-.124-.371-.124a.454.454,0,0,1-.371-.124,6.528,6.528,0,0,0-1.606-.124H6.53a.454.454,0,0,0-.371.124.68.68,0,0,0-.371.618L4.8,34.667v.247a1.06,1.06,0,0,1,.865-.741H7.518c3.583,0,6.3-1.483,7.167-5.56a.454.454,0,0,1,.124-.371c-.247-.124-.371-.247-.618-.247-.371-.124-.371-.124-.494-.124" transform="translate(-4.8 -27.5)" fill="#232c65"/>
        </g>
      </g>
    </g>
  </g>
</svg>
