<svg xmlns="http://www.w3.org/2000/svg" width="92" height="56" viewBox="0 0 92 56">
  <g id="visa" transform="translate(0.15 -0.294)">
    <rect id="bg" width="92" height="56" rx="8" transform="translate(-0.15 0.294)" fill="rgba(41,54,136,0.2)"/>
    <g id="_1156753_finance_payment_visa_icon" data-name="1156753_finance_payment_visa_icon" transform="translate(17.766 19.78)">
      <g id="Group_11006" data-name="Group 11006" transform="translate(0 0)">
        <g id="Group_10985" data-name="Group 10985" transform="translate(20.595 0.535)">
          <g id="Group_10984" data-name="Group 10984">
            <path id="Path_22018" data-name="Path 22018" d="M23.6,39.048,26.453,23h4.458L28.147,39.048Z" transform="translate(-23.6 -23)" fill="#3c58bf"/>
          </g>
        </g>
        <g id="Group_10987" data-name="Group 10987" transform="translate(20.595 0.535)">
          <g id="Group_10986" data-name="Group 10986">
            <path id="Path_22019" data-name="Path 22019" d="M23.6,39.048,27.255,23h3.655L28.147,39.048Z" transform="translate(-23.6 -23)" fill="#293688"/>
          </g>
        </g>
        <g id="Group_10989" data-name="Group 10989" transform="translate(27.638)">
          <g id="Group_10988" data-name="Group 10988">
            <path id="Path_22020" data-name="Path 22020" d="M45.141,23.113a11.308,11.308,0,0,0-4.1-.713c-4.458,0-7.667,2.229-7.667,5.439,0,2.407,2.229,3.655,4.012,4.458S39.7,33.634,39.7,34.347c0,1.07-1.426,1.6-2.675,1.6a9.691,9.691,0,0,1-4.279-.892l-.624-.267L31.5,38.448a14.456,14.456,0,0,0,5.082.892c4.725,0,7.846-2.229,7.846-5.617,0-1.872-1.159-3.3-3.834-4.458-1.6-.8-2.586-1.248-2.586-2.051,0-.713.8-1.426,2.586-1.426a8.178,8.178,0,0,1,3.388.624l.446.178.713-3.477Z" transform="translate(-31.5 -22.4)" fill="#3c58bf"/>
          </g>
        </g>
        <g id="Group_10991" data-name="Group 10991" transform="translate(27.638)">
          <g id="Group_10990" data-name="Group 10990">
            <path id="Path_22021" data-name="Path 22021" d="M45.141,23.113a11.308,11.308,0,0,0-4.1-.713c-4.458,0-6.865,2.229-6.865,5.439,0,2.407,1.426,3.655,3.21,4.458S39.7,33.634,39.7,34.347c0,1.07-1.426,1.6-2.675,1.6a9.691,9.691,0,0,1-4.279-.892l-.624-.267L31.5,38.448a14.456,14.456,0,0,0,5.082.892c4.725,0,7.846-2.229,7.846-5.617,0-1.872-1.159-3.3-3.834-4.458-1.6-.8-2.586-1.248-2.586-2.051,0-.713.8-1.426,2.586-1.426a8.178,8.178,0,0,1,3.388.624l.446.178.713-3.477Z" transform="translate(-31.5 -22.4)" fill="#293688"/>
          </g>
        </g>
        <g id="Group_10993" data-name="Group 10993" transform="translate(39.942 0.535)">
          <g id="Group_10992" data-name="Group 10992">
            <path id="Path_22022" data-name="Path 22022" d="M54.3,23c-1.07,0-1.872.089-2.318,1.159L45.3,39.048h4.814l.892-2.675h5.706l.535,2.675h4.279L57.782,23ZM52.254,33.7c.267-.8,1.783-4.725,1.783-4.725s.357-.981.624-1.6l.267,1.516s.892,4.012,1.07,4.9H52.254Z" transform="translate(-45.3 -23)" fill="#3c58bf"/>
          </g>
        </g>
        <g id="Group_10995" data-name="Group 10995" transform="translate(39.942 0.535)">
          <g id="Group_10994" data-name="Group 10994">
            <path id="Path_22023" data-name="Path 22023" d="M55.375,23c-1.07,0-1.872.089-2.318,1.159L45.3,39.048h4.814l.892-2.675h5.706l.535,2.675h4.279L57.782,23Zm-3.12,10.7c.357-.892,1.783-4.725,1.783-4.725s.357-.981.624-1.6l.267,1.516s.892,4.012,1.07,4.9H52.254Z" transform="translate(-45.3 -23)" fill="#293688"/>
          </g>
        </g>
        <g id="Group_10997" data-name="Group 10997" transform="translate(5.706 0.624)">
          <g id="Group_10996" data-name="Group 10996">
            <path id="Path_22024" data-name="Path 22024" d="M13.587,34.244l-.446-2.318A12.924,12.924,0,0,0,6.9,24.883l4.012,14.265h4.814L22.948,23.1H18.134Z" transform="translate(-6.9 -23.1)" fill="#3c58bf"/>
          </g>
        </g>
        <g id="Group_10999" data-name="Group 10999" transform="translate(5.706 0.624)">
          <g id="Group_10998" data-name="Group 10998">
            <path id="Path_22025" data-name="Path 22025" d="M13.587,34.244l-.446-2.318A12.924,12.924,0,0,0,6.9,24.883l4.012,14.265h4.814L22.948,23.1H19.025Z" transform="translate(-6.9 -23.1)" fill="#293688"/>
          </g>
        </g>
        <g id="Group_11001" data-name="Group 11001" transform="translate(0 0.535)">
          <g id="Group_11000" data-name="Group 11000">
            <path id="Path_22026" data-name="Path 22026" d="M.5,23l.8.178c5.706,1.337,9.629,4.725,11.144,8.737l-1.6-7.578C10.575,23.267,9.772,23,8.791,23Z" transform="translate(-0.5 -23)" fill="#ffbc00"/>
          </g>
        </g>
        <g id="Group_11003" data-name="Group 11003" transform="translate(0 0.535)">
          <g id="Group_11002" data-name="Group 11002">
            <path id="Path_22027" data-name="Path 22027" d="M.5,23h0c5.706,1.337,10.431,4.814,11.947,8.826L10.931,25.5A2.176,2.176,0,0,0,8.791,23.8Z" transform="translate(-0.5 -23)" fill="#f7981d"/>
          </g>
        </g>
        <g id="Group_11005" data-name="Group 11005" transform="translate(0 0.535)">
          <g id="Group_11004" data-name="Group 11004">
            <path id="Path_22028" data-name="Path 22028" d="M.5,23h0c5.706,1.337,10.431,4.814,11.947,8.826l-1.07-3.477A3.144,3.144,0,0,0,9.5,25.764Z" transform="translate(-0.5 -23)" fill="#ed7c00"/>
          </g>
        </g>
      </g>
      <g id="Group_11007" data-name="Group 11007" transform="translate(5.795 2.318)">
        <path id="Path_22029" data-name="Path 22029" d="M18.055,33.916l-3.031-3.031L13.6,34.272l-.357-2.229A12.924,12.924,0,0,0,7,25l4.012,14.265h4.814Z" transform="translate(-7 -25)" fill="#051244"/>
      </g>
      <g id="Group_11008" data-name="Group 11008" transform="translate(20.595 12.66)">
        <path id="Path_22030" data-name="Path 22030" d="M28.147,40.523,24.313,36.6,23.6,40.523Z" transform="translate(-23.6 -36.6)" fill="#051244"/>
      </g>
      <g id="Group_11009" data-name="Group 11009" transform="translate(27.638 11.055)">
        <path id="Path_22031" data-name="Path 22031" d="M39.257,34.8h0c.357.357.535.624.446.981,0,1.07-1.426,1.6-2.675,1.6a9.691,9.691,0,0,1-4.279-.892l-.624-.267L31.5,39.882a14.456,14.456,0,0,0,5.082.892c2.853,0,5.171-.8,6.508-2.229Z" transform="translate(-31.5 -34.8)" fill="#051244"/>
      </g>
      <g id="Group_11010" data-name="Group 11010" transform="translate(40.566 4.904)">
        <path id="Path_22032" data-name="Path 22032" d="M46,39.579h4.19l.892-2.675h5.706l.535,2.675H61.6l-1.516-6.508L54.737,27.9,55,29.326s.892,4.012,1.07,4.9H52.33c.357-.892,1.783-4.725,1.783-4.725s.357-.981.624-1.6" transform="translate(-46 -27.9)" fill="#051244"/>
      </g>
    </g>
  </g>
</svg>
