<svg xmlns="http://www.w3.org/2000/svg" width="89" height="89" viewBox="0 0 89 89">
  <g id="delivery_icon" data-name="delivery icon" transform="translate(-1682 -5528)">
    <rect id="bg" width="89" height="89" transform="translate(1682 5528)" fill="#fff"/>
    <g id="delivery" transform="translate(1687.29 5547.297)">
      <path id="Path_22075" data-name="Path 22075" d="M208.559,207.542l5.778-1.156,2.642-7.925a6.841,6.841,0,0,1,6.521-4.705h21.627a14.126,14.126,0,0,0,21.38,10.4V220.5a3.047,3.047,0,0,1-3.054,3.054h-2.477a7.512,7.512,0,1,1-15.024,0H227.132a7.512,7.512,0,0,1-15.024,0h-2.972a3.047,3.047,0,0,1-3.054-3.054V210.6a3.176,3.176,0,0,1,2.477-3.054Zm44.906,19.646a3.549,3.549,0,1,0-3.549-3.549A3.523,3.523,0,0,0,253.465,227.188Zm-25.59-21.38V197.8h-4.457a2.851,2.851,0,0,0-2.724,1.981l-1.981,5.943h9.163Zm-8.255,21.38a3.549,3.549,0,1,0-3.549-3.549A3.523,3.523,0,0,0,219.621,227.188Z" transform="translate(-206.082 -181.788)" fill="#00adbb"/>
      <path id="Path_22076" data-name="Path 22076" d="M86.066,333.76h9.74a2.064,2.064,0,0,1,0,4.127h-9.74a2.064,2.064,0,0,1,0-4.127Z" transform="translate(-19.449 -301.154)" fill="#00adbb"/>
      <path id="Path_22077" data-name="Path 22077" d="M102.3,283.36h7.347a2.064,2.064,0,1,1,0,4.127H102.3a2.064,2.064,0,1,1,0-4.127Z" transform="translate(-35.687 -258.183)" fill="#00adbb"/>
      <path id="Path_22078" data-name="Path 22078" d="M119.1,232.4h4.87a2.064,2.064,0,1,1,0,4.127H119.1a2.064,2.064,0,1,1,0-4.127Z" transform="translate(-52.488 -214.735)" fill="#00adbb"/>
      <path id="Path_22079" data-name="Path 22079" d="M185.362,122.962a10.4,10.4,0,1,1,10.4,10.4A10.41,10.41,0,0,1,185.362,122.962Zm11.969,0v-5.448a1.569,1.569,0,1,0-3.137,0v3.8H191.8a1.569,1.569,0,1,0,0,3.137h3.962a1.45,1.45,0,0,0,1.569-1.486Z" transform="translate(-142.684 -112.561)" fill="#00adbb"/>
    </g>
  </g>
</svg>
