<svg xmlns="http://www.w3.org/2000/svg" width="89" height="89" viewBox="0 0 89 89">
  <g id="return_icon" data-name="return icon" transform="translate(-1682 -5528)">
    <rect id="bg" width="89" height="89" transform="translate(1682 5528)" fill="#fff"/>
    <g id="return" transform="translate(1556.163 5495.118)">
      <path id="Path_22081" data-name="Path 22081" d="M190.736,71.58a23.041,23.041,0,0,0-4.7-7,21.426,21.426,0,0,0-7-4.7,23.291,23.291,0,0,0-7.1-1.726V52.495l-14.961,8.631,14.865,8.536V64.1A16.147,16.147,0,1,1,154.387,82.7a2.922,2.922,0,0,0-2.973-2.494,3,3,0,0,0-2.973,3.453,21.665,21.665,0,0,0,6.138,12.18,21.427,21.427,0,0,0,7,4.7,22.018,22.018,0,0,0,8.631,1.726,22.366,22.366,0,0,0,8.631-1.726,23.041,23.041,0,0,0,7-4.7,21.426,21.426,0,0,0,4.7-7,22.018,22.018,0,0,0,1.726-8.631,20.551,20.551,0,0,0-1.534-8.631Z" transform="translate(0)" fill="#00adbb"/>
    </g>
  </g>
</svg>
