<svg xmlns="http://www.w3.org/2000/svg" width="89" height="89" viewBox="0 0 89 89">
  <g id="icon" transform="translate(-1682 -5528)">
    <rect id="bg" width="89" height="89" transform="translate(1682 5528)" fill="#fff"/>
    <g id="support-" transform="translate(1612.181 5506.511)">
      <path id="Path_22080" data-name="Path 22080" d="M135.926,33.656a32.346,32.346,0,1,0,22.867,9.48A32.255,32.255,0,0,0,135.926,33.656Zm0,2.917a29.242,29.242,0,0,1,17.424,5.756l-8.464,8.49a17.617,17.617,0,0,0-17.918,0l-8.49-8.49a29.316,29.316,0,0,1,17.45-5.756Zm-23.7,12.006,8.517,8.464a17.657,17.657,0,0,0,0,17.918l-8.517,8.49a29.423,29.423,0,0,1,0-34.872Zm47.373,0a29.423,29.423,0,0,1,0,34.872l-8.49-8.49a17.781,17.781,0,0,0,0-17.918l8.49-8.465Zm-23.674,2.709a14.714,14.714,0,1,1-10.417,4.323,14.592,14.592,0,0,1,10.417-4.323ZM126.94,81.211h.026a17.657,17.657,0,0,0,17.918,0h.026l8.438,8.464a29.342,29.342,0,0,1-34.872,0Z" transform="translate(-21.604)" fill="#00adbb"/>
    </g>
  </g>
</svg>
