<svg id="cart" xmlns="http://www.w3.org/2000/svg" width="44" height="44" viewBox="0 0 44 44">
  <g id="Rectangle_4517" data-name="Rectangle 4517" fill="#fff" stroke="#707070" stroke-width="1" opacity="0">
    <rect width="44" height="44" stroke="none"/>
    <rect x="0.5" y="0.5" width="43" height="43" fill="none"/>
  </g>
  <g id="icon" transform="translate(11.292 9.313)">
    <path id="Path_398" data-name="Path 398" d="M30.8,5.708H29.785a1.925,1.925,0,0,0-1.9-1.524H23.529V3.623A1.13,1.13,0,0,0,22.406,2.5H18.984a1.13,1.13,0,0,0-1.123,1.123v.561H13.529a1.925,1.925,0,0,0-1.9,1.524H10.615A.605.605,0,0,0,10,6.323V7.393a.605.605,0,0,0,.615.615H30.8a.605.605,0,0,0,.615-.615V6.323A.622.622,0,0,0,30.8,5.708Z" transform="translate(-10 -2.5)" fill="#fff" opacity="0.47"/>
    <path id="Path_399" data-name="Path 399" d="M33.752,28.8H16.266a.379.379,0,0,0-.374.428l2.032,16.309a1.844,1.844,0,0,0,1.818,1.6H30.276a1.824,1.824,0,0,0,1.818-1.6l2.032-16.309A.379.379,0,0,0,33.752,28.8Zm-12.406,15h0a.69.69,0,0,1-.7-.7l-.08-10.24a.7.7,0,0,1,1.39,0l.08,10.24A.69.69,0,0,1,21.346,43.8Zm4.358-.7a.7.7,0,1,1-1.39,0V32.864a.7.7,0,0,1,1.39,0Zm3.663,0a.708.708,0,0,1-.7.7h0a.708.708,0,0,1-.7-.7l.08-10.24a.7.7,0,0,1,1.39,0Z" transform="translate(-14.315 -21.768)" fill="#fff"/>
  </g>
</svg>
