<svg id="Layer_1" data-name="Layer 1" xmlns="http://www.w3.org/2000/svg" viewBox="0 0 851.22 689.3"><title>LOGO(1) - Copy</title><path d="M156.78,835.42h26.71L170.13,796.2Zm42.87,47.1-8.74-25.6h-41.4l-8.73,25.6H114.39l42.55-115.37h28.69l41.88,115.37Z" transform="translate(-114.39 -195.35)" fill="#3f2d3b"/><rect x="122.69" y="571.81" width="26.06" height="115.37" fill="#3f2d3b"/><polygon points="305.4 571.81 329.64 571.81 329.64 687.18 303.92 687.18 303.92 615.95 273.57 664.69 258.41 664.69 229.54 616.93 229.54 687.18 203.82 687.18 203.82 571.81 228.55 571.81 228.55 572.14 266.81 631.87 305.4 571.81" fill="#3f2d3b"/><path d="M477.83,784.2a14.37,14.37,0,1,0-14.42-14.36,14.4,14.4,0,0,0,14.42,14.36m-13,10.86h26.05v87.47H464.81Z" transform="translate(-114.39 -195.35)" fill="#3f2d3b"/><polygon points="483.49 687.17 451.34 687.17 421.65 647.46 421.65 687.17 395.6 687.17 395.6 571.8 421.65 571.8 421.65 639.59 451.67 599.7 481.35 599.7 447.21 641.39 483.49 687.17" fill="#3f2d3b"/><path d="M696.66,832v50.54H670.6V833.29c0-13.29-4.12-19.2-14.34-19.2-10.07,0-18.31,7.06-24.74,22v46.44h-26V767.15h26V809.5c8.08-10.84,18.8-16.91,31.66-16.91,20.45,0,33.48,10.34,33.48,39.39" transform="translate(-114.39 -195.35)" fill="#3f2d3b"/><rect x="600.4" y="571.81" width="26.06" height="115.37" fill="#3f2d3b"/><path d="M829.24,838.38c-4.79-16.25-14.35-24.45-25.23-24.45-11.71,0-20.78,8.7-20.78,24.45,0,15.59,9.24,24.78,20.94,24.78,11.38,0,20.78-10,25.07-24.78m0-43.33h26v87.47h-26V868.08c-7.1,10.51-17.15,16.57-30.18,16.57-22.1,0-43.37-15.58-43.37-45.94s20.28-46.29,43.37-46.29q19.31,0,30.18,14.28Z" transform="translate(-114.39 -195.35)" fill="#3f2d3b"/><path d="M965.61,832v50.54H939.56V833.29c0-13.29-4.13-19.2-14.35-19.2-10.06,0-18.3,7.06-24.74,22v46.44H874.42V767.15h26.05V809.5c8.08-10.84,18.8-16.91,31.66-16.91,20.45,0,33.48,10.34,33.48,39.39" transform="translate(-114.39 -195.35)" fill="#3f2d3b"/><path d="M238.6,663.32V558.46H213V693.23c14.07,0,25.63-8.11,25.63-29.91" transform="translate(-114.39 -195.35)" fill="#3f2d3b"/><path d="M944.93,656.32V558.46H919.29v95.36a61.18,61.18,0,0,1,25.64,2.5" transform="translate(-114.39 -195.35)" fill="#3f2d3b"/><path d="M155.14,707.33c-20.85,0-19.24-29.62,0-35.91,20,8.37,19.67,35.91,0,35.91m0-59.56c-23,2.39-40.75,22.16-40.75,44.52a40.75,40.75,0,0,0,81.49,0c0-22.36-18.3-40.21-40.74-44.52" transform="translate(-114.39 -195.35)" fill="#3f2d3b"/><path d="M924.74,720.1c-16.67,0-21.58-19.68-22.27-22.88,7.37-3.17,13.42-4.41,18.32-4.41,23.45,0,23.68,27.29,4,27.29M900,671.85c-1.37-5.15-1.53-20.34-1.53-26.79,0-.69,0-86.6,0-86.6H872.8v83.11c0,11.4.1,29.65,1.72,38.47-3.37,1.07-14.37,3.8-23.68,5.71a9.88,9.88,0,0,1-2.51.32c-20,0-33.41-52.24-77.37-52.24-9,0-20.58,1.64-35,10l12.68,21.34c8-4.8,13.16-6.41,20.73-6.41,26.33,0,36.83,28.79,49,36.49-66.81,13.13-164.5,20.36-269,20.36-98.57,0-267.2-12-265.26-60.26l.34-96.94H258.82V665.39c0,8.93-2.59,50.39-47,45l-3.71,25.25c47.77,6.09,66.92-33.6,69.69-39.84,21.93,28.32,129.73,44.72,271.56,44.72,116.1,0,243.71-11.41,329.78-34.47,14.24,55.06,85.21,50.22,83.66,1.63C961.64,670.31,925,663.06,900,671.85" transform="translate(-114.39 -195.35)" fill="#3f2d3b"/><path d="M773.43,605.63A14.37,14.37,0,1,0,759,591.27a14.39,14.39,0,0,0,14.43,14.36" transform="translate(-114.39 -195.35)" fill="#3f2d3b"/><path d="M155.14,624.18a14.36,14.36,0,1,0-14.43-14.36,14.39,14.39,0,0,0,14.43,14.36" transform="translate(-114.39 -195.35)" fill="#3f2d3b"/><path d="M155.14,587.18a14.36,14.36,0,1,0-14.43-14.36,14.39,14.39,0,0,0,14.43,14.36" transform="translate(-114.39 -195.35)" fill="#3f2d3b"/><path d="M458,487.7a30.43,30.43,0,0,1-11.35-23.76,30.77,30.77,0,0,1,30.8-30.66c12.38,0,21.3,8.19,31.62,17.67,2.63,2.42,5.34,4.91,8.16,7.29,18.37,15.55,35.13,25,52.74,29.73a127.31,127.31,0,0,0,45.87,3.62A149.59,149.59,0,0,1,458,487.7M391.57,379.53a64.65,64.65,0,0,1,6.36-8.13c16.49-17.86,42.41-23.54,69.35-15.2a88.27,88.27,0,0,1,26.32,13.33c10.64,7.92,21.4,18.2,32.91,31.42,4.74,5.45,9.26,11.09,14,17.06,13.29,16.58,27,33.72,45.16,45.78a89.35,89.35,0,0,0,16.65,8.75,106.34,106.34,0,0,1-27.28-3.61c-14.68-3.94-29-12.11-45.06-25.71-2.52-2.12-5-4.37-7.56-6.75-11.68-10.74-24.93-22.9-45.06-22.9a50.55,50.55,0,0,0-50.48,47,147.52,147.52,0,0,1-35.36-81m173.35-3.48c19.29,0,37.76,10.5,54.93,31.21,2.1,2.54,4.16,5.13,6.33,7.86,9.35,11.75,19.65,24.7,33.87,33-19.89,13.48-42.29,13.26-63.33-.74C581.16,437,568.39,421.12,556,405.72c-4.7-5.87-9.56-11.93-14.55-17.67-1.37-1.57-2.72-3.09-4.07-4.59a54.33,54.33,0,0,1,27.5-7.41m-66.37-64.27A66,66,0,0,1,540,297.34c36.73,0,66.62,29.74,66.62,66.3q0,2.58-.21,5.13c-13.14-8.27-27-12.43-41.49-12.43A75.48,75.48,0,0,0,523.36,369a191.25,191.25,0,0,0-17.9-15.21,108.18,108.18,0,0,0-27.31-14.67,66.93,66.93,0,0,1,20.4-27.29m142.34,90.06c-1.89-2.36-3.81-4.78-5.76-7.13a145.37,145.37,0,0,0-10.9-11.8,85.32,85.32,0,0,0,2.2-19.27c0-47.43-38.77-86-86.43-86A86.49,86.49,0,0,0,458.88,334a96.31,96.31,0,0,0-22.35-1A108.06,108.06,0,0,1,540,256.2c59.53,0,108,48.2,108,107.44a107,107,0,0,1-7.07,38.2M540,215.07c82.32,0,149.29,66.65,149.29,148.57a147,147,0,0,1-17,68.73c-6.42-3.27-12-8-17.23-13.58a126.43,126.43,0,0,0,12.68-55.15c0-70.12-57.32-127.15-127.77-127.15A127.79,127.79,0,0,0,415,337.38a77.78,77.78,0,0,0-23.7,13.21C398,274.76,462.1,215.07,540,215.07m119.58,29.57a167.72,167.72,0,1,0,49.53,119,168.42,168.42,0,0,0-49.53-119" transform="translate(-114.39 -195.35)" fill="#00adbb"/></svg>