<svg xmlns="http://www.w3.org/2000/svg" width="45.069" height="45.069" viewBox="0 0 45.069 45.069">
  <g id="icon" transform="translate(-2.5 -2)">
    <path id="Path-30" d="M20.232,8.077,10.194,20.123A2.372,2.372,0,1,1,6.55,17.086L18.41,2.853a2.372,2.372,0,0,1,3.645,0l11.86,14.232a2.372,2.372,0,1,1-3.645,3.037Z" transform="translate(5.988 0)" fill="#00adbb" opacity="0.3"/>
    <path id="Combined-Shape" d="M4.872,9H45.2a2.372,2.372,0,0,1,2.19,3.284l-8.667,20.8a7.116,7.116,0,0,1-6.569,4.379H17.919a7.116,7.116,0,0,1-6.569-4.379l-8.667-20.8A2.372,2.372,0,0,1,4.872,9ZM25.035,27.976a4.744,4.744,0,1,0-4.744-4.744A4.744,4.744,0,0,0,25.035,27.976Z" transform="translate(0 9.604)" fill="#00adbb" fill-rule="evenodd"/>
  </g>
</svg>
