<svg id="profile" xmlns="http://www.w3.org/2000/svg" width="37.197" height="41.329" viewBox="0 0 37.197 41.329">
  <ellipse id="Ellipse_10" data-name="Ellipse 10" cx="11.624" cy="11.481" rx="11.624" ry="11.481" transform="translate(6.974 0)" fill="#00adbb" opacity="0.3"/>
  <path id="Path_65" data-name="Path 65" d="M37.176,20.24h0a3.81,3.81,0,0,0,0-.491,4.424,4.424,0,0,0-.5-1.736c-1.13-2.208-4.3-3.208-6.941-3.774A39.014,39.014,0,0,0,24,13.484l-2.018-.151H15.2l-2.018.151a39.016,39.016,0,0,0-5.731.755c-2.643.491-5.811,1.51-6.941,3.774a4.429,4.429,0,0,0-.5,1.736,3.829,3.829,0,0,0,0,.491h0a4.147,4.147,0,0,0,0,.491,4.435,4.435,0,0,0,.525,1.717c1.13,2.208,4.3,3.208,6.941,3.774a44.874,44.874,0,0,0,5.731.755l2.018.132H22l2.018-.132a44.877,44.877,0,0,0,5.731-.755c2.643-.51,5.811-1.51,6.941-3.774a4.893,4.893,0,0,0,.5-1.755A3.685,3.685,0,0,0,37.176,20.24Z" transform="translate(0 14.219)" fill="#00adbb"/>
</svg>
